<svg width="800" height="142" xmlns="http://www.w3.org/2000/svg" xmlns:xlink="http://www.w3.org/1999/xlink" preserveAspectRatio="xMidYMid meet">
 <defs>
  <path id="aKIxwuU0S" d="m-238.75,17.74c0,7.51 0,45.11 0,112.79c1329.53,0 2068.15,0 2215.88,0c3.57,-37.6 0.54,-112.79 -40.14,-112.79c-50.85,0 -152.54,-16.95 -251.56,-16.95c-99.02,0 -162.36,16.95 -253.35,16.95c-90.99,0 -135.59,-16.95 -281.89,-16.95c-146.29,0 -209.63,16.95 -305.08,16.95c-95.45,0 -118.65,-16.95 -239.97,-16.95c-121.32,0 -163.24,16.95 -271.18,16.95c-107.94,0 -142.73,-11.67 -288.14,-16.95c-116.32,-4.22 -238.18,9.54 -284.57,16.95z"/>
  <path id="d2uJvcFdU0" d="m-439,38.44c0,6.97 0,41.82 0,104.56c1329.53,0 2068.16,0 2215.89,0c3.57,-34.85 0.54,-104.56 -40.14,-104.56c-50.85,0 -152.54,-15.71 -251.56,-15.71c-99.02,0 -162.36,15.71 -253.35,15.71c-90.99,0 -135.59,-15.71 -281.89,-15.71c-146.3,0 -209.64,15.71 -305.09,15.71c-95.45,0 -118.64,-15.71 -239.96,-15.71c-121.33,0 -163.25,15.71 -271.19,15.71c-107.94,0 -142.73,-10.82 -288.14,-15.71c-116.33,-3.91 -238.18,8.84 -284.57,15.71z"/>
  <path id="a5qDAEYcCJ" d="m62.42,10.51c-21.69,-0.69 -42.55,-0.1 -62.42,1.35c0,8.9 0,53.44 0,133.61l1920,0c0,-67.55 0,-105.08 0,-112.59c-22.85,-6.13 -51.79,-12.02 -99.44,-12.02c-99.3,0 -163.41,40.73 -254.65,40.73c-91.25,0 -219.32,-30.02 -366.04,-30.02c-146.71,0 -210.23,14.87 -305.95,14.87c-95.72,0 -153.22,-25.58 -274.88,-25.58c-121.67,0 -129.48,25.58 -237.73,25.58c-108.24,0 -173.07,-31.3 -318.89,-35.93z"/>
 </defs>
 <g>
  <title>background</title>
  <rect fill="none" id="canvas_background" height="144" width="802" y="-1" x="-1"/>
 </g>
 <g>
  <title>Layer 1</title>
  <g id="svg_1">
   <g id="svg_2">
    <g id="svg_3">
     <use id="svg_4" fill="#d9f2ff" xlink:href="#aKIxwuU0S"/>
     <g id="svg_5">
      <use id="svg_6" stroke-opacity="0" stroke="#000000" fill-opacity="0" xlink:href="#aKIxwuU0S"/>
     </g>
    </g>
    <g id="svg_7">
     <use id="svg_8" fill="#164352" xlink:href="#d2uJvcFdU0"/>
     <g id="svg_9">
      <use id="svg_10" stroke-opacity="0" stroke="#000000" fill-opacity="0" xlink:href="#d2uJvcFdU0"/>
     </g>
    </g>
    <g id="svg_11">
     <use id="svg_12" fill="#2d7e97" xlink:href="#a5qDAEYcCJ"/>
     <g id="svg_13">
      <use id="svg_14" stroke-opacity="0" stroke="#000000" fill-opacity="0" xlink:href="#a5qDAEYcCJ"/>
     </g>
    </g>
   </g>
  </g>
 </g>
</svg>