<?xml version="1.0" encoding="UTF-8" standalone="no"?>
<!DOCTYPE svg PUBLIC "-//W3C//DTD SVG 1.1//EN" "http://www.w3.org/Graphics/SVG/1.1/DTD/svg11.dtd">
<svg version="1.1" xmlns="http://www.w3.org/2000/svg" xmlns:xlink="http://www.w3.org/1999/xlink" preserveAspectRatio="xMidYMid meet" viewBox="0 0 1920 70" width="1920" height="70"><defs><path d="M-238.75 17.74C-238.75 25.25 -238.75 62.85 -238.75 130.53C1090.78 130.53 1829.4 130.53 1977.13 130.53C1980.7 92.93 1977.67 17.74 1936.99 17.74C1886.14 17.74 1784.45 0.79 1685.43 0.79C1586.41 0.79 1523.07 17.74 1432.08 17.74C1341.09 17.74 1296.49 0.79 1150.19 0.79C1003.9 0.79 940.56 17.74 845.11 17.74C749.66 17.74 726.46 0.79 605.14 0.79C483.82 0.79 441.9 17.74 333.96 17.74C226.02 17.74 191.23 6.07 45.82 0.79C-70.5 -3.43 -192.36 10.33 -238.75 17.74Z" id="aKIxwuU0S"></path><path d="M-439 38.44C-439 45.41 -439 80.26 -439 143C890.53 143 1629.16 143 1776.89 143C1780.46 108.15 1777.43 38.44 1736.75 38.44C1685.9 38.44 1584.21 22.73 1485.19 22.73C1386.17 22.73 1322.83 38.44 1231.84 38.44C1140.85 38.44 1096.25 22.73 949.95 22.73C803.65 22.73 740.31 38.44 644.86 38.44C549.41 38.44 526.22 22.73 404.9 22.73C283.57 22.73 241.65 38.44 133.71 38.44C25.77 38.44 -9.02 27.62 -154.43 22.73C-270.76 18.82 -392.61 31.57 -439 38.44Z" id="d2uJvcFdU0"></path><path d="M62.42 10.51C40.73 9.82 19.87 10.41 0 11.86C0 20.76 0 65.3 0 145.47L1920 145.47C1920 77.92 1920 40.39 1920 32.88C1897.15 26.75 1868.21 20.86 1820.56 20.86C1721.26 20.86 1657.15 61.59 1565.91 61.59C1474.66 61.59 1346.59 31.57 1199.87 31.57C1053.16 31.57 989.64 46.44 893.92 46.44C798.2 46.44 740.7 20.86 619.04 20.86C497.37 20.86 489.56 46.44 381.31 46.44C273.07 46.44 208.24 15.14 62.42 10.51Z" id="a5qDAEYcCJ"></path></defs><g><g><g><use xlink:href="#aKIxwuU0S" opacity="1" fill="#d9f2ff" fill-opacity="1"></use><g><use xlink:href="#aKIxwuU0S" opacity="1" fill-opacity="0" stroke="#000000" stroke-width="1" stroke-opacity="0"></use></g></g><g><use xlink:href="#d2uJvcFdU0" opacity="1" fill="#164352" fill-opacity="1"></use><g><use xlink:href="#d2uJvcFdU0" opacity="1" fill-opacity="0" stroke="#000000" stroke-width="1" stroke-opacity="0"></use></g></g><g><use xlink:href="#a5qDAEYcCJ" opacity="1" fill="#2d7e97" fill-opacity="1"></use><g><use xlink:href="#a5qDAEYcCJ" opacity="1" fill-opacity="0" stroke="#000000" stroke-width="1" stroke-opacity="0"></use></g></g></g></g></svg>