<svg width="1920" height="159" viewBox="0 0 1920 159" fill="none" xmlns="http://www.w3.org/2000/svg">
<path d="M1595.78 128.265C1703.72 128.265 1740.09 135.755 1885.5 141.033C1897.66 141.475 1908.31 140.957 1920.5 141.033L1920.5 15.4739L1.2463e-05 15.4738L3.43826e-06 118.705C52.9207 120.982 149.944 145.212 244.31 145.212C343.329 145.212 375.51 100.033 466.5 100.033C557.49 100.033 580 164.033 721.5 140.033C861.838 116.231 976.549 103.534 1072 103.534C1167.45 103.534 1202.18 158.034 1323.5 158.034C1444.82 158.034 1487.84 128.265 1595.78 128.265Z" fill="#D9F2FF"/>
<path d="M1538.5 133.034C1659.82 133.034 1688.09 104.56 1796.03 104.56C1847.74 104.56 1882.16 106.909 1920.5 110.033L1920.5 0.000152588L152.846 0.000150643C149.278 34.8532 152.311 104.559 192.99 104.559C243.837 104.559 281.481 126.535 380.5 126.535C479.519 126.535 606.908 104.559 697.899 104.56C788.89 104.56 897.201 128.535 1043.5 128.535C1189.8 128.535 1189.43 104.56 1284.88 104.56C1380.33 104.56 1417.18 133.034 1538.5 133.034Z" fill="#164352"/>
<path d="M1539.19 106.556C1647.43 106.556 1712.26 137.856 1858.08 142.49C1879.77 143.18 1900.63 142.595 1920.5 141.144L1920.5 7.53442L0.500012 7.53426L0.500002 120.119C23.3506 126.246 52.2925 132.136 99.9404 132.136C199.241 132.136 263.345 91.4071 354.594 91.4072C445.843 91.4072 573.914 121.434 720.628 121.434C867.343 121.434 930.859 106.556 1026.58 106.556C1122.3 106.556 1179.8 132.136 1301.46 132.136C1423.13 132.136 1430.94 106.556 1539.19 106.556Z" fill="#2D7E97"/>
</svg>
