<svg width="1920" height="146" viewBox="0 0 1920 146" fill="none" xmlns="http://www.w3.org/2000/svg">
<path d="M45.8214 0.788649C-70.5033 -3.43408 -192.359 10.3268 -238.746 17.7351V130.527H1977.13C1980.7 92.9294 1977.67 17.7351 1936.99 17.7351C1886.14 17.7351 1784.45 0.788649 1685.43 0.788649C1586.41 0.788649 1523.07 17.7351 1432.08 17.7351C1341.09 17.7351 1296.49 0.788649 1150.19 0.788649C1003.9 0.788649 940.559 17.7351 845.108 17.7351C749.658 17.7351 726.464 0.788649 605.144 0.788649C483.823 0.788649 441.897 17.7351 333.957 17.7351C226.018 17.7351 191.227 6.06707 45.8214 0.788649Z" fill="#D9F2FF"/>
<path d="M-154.431 22.7311C-270.756 18.8166 -392.613 31.5731 -439 38.4407V143H1776.89C1780.46 108.147 1777.43 38.4407 1736.75 38.4407C1685.9 38.4407 1584.21 22.7311 1485.19 22.7311C1386.17 22.7311 1322.83 38.4407 1231.84 38.4407C1140.85 38.4407 1096.25 22.7311 949.948 22.7311C803.649 22.7311 740.312 38.4407 644.861 38.4407C549.41 38.4407 526.216 22.7311 404.895 22.7311C283.574 22.7311 241.647 38.4407 133.707 38.4407C25.7668 38.4407 -9.02383 27.6243 -154.431 22.7311Z" fill="#164352"/>
<path d="M381.314 46.4443C273.067 46.4443 208.243 15.1441 62.4236 10.5101C40.7262 9.82057 19.8726 10.4057 0 11.8569V145.466H1920V32.8813C1897.15 26.7543 1868.21 20.8648 1820.56 20.8648C1721.26 20.8648 1657.15 61.5932 1565.91 61.5932C1474.66 61.5932 1346.59 31.5667 1199.87 31.5667C1053.16 31.5667 989.641 46.4443 893.919 46.4443C798.197 46.4443 740.701 20.8648 619.035 20.8648C497.37 20.8648 489.56 46.4443 381.314 46.4443Z" fill="#2D7E97"/>
</svg>
