<svg width="1920" height="125" viewBox="0 0 1920 125" fill="none" xmlns="http://www.w3.org/2000/svg">
<path d="M253.096 0.682753C382.421 5.25241 413.363 15.3537 509.365 15.3537C605.367 15.3537 642.657 0.682753 750.56 0.682753C858.463 0.682753 879.091 15.3537 963.986 15.3537C1048.88 15.3537 1105.21 0.682753 1235.33 0.682753C1365.45 0.682753 1405.12 15.3537 1486.05 15.3537C1566.97 15.3537 1623.3 0.682753 1711.37 0.682753C1790.5 0.682753 1871.56 12.5278 1920 14.9313V113H212.342H0V15.3537C35.852 9.78043 122.391 0.0541038 212.342 0.000224796C225.903 -0.007898 239.542 0.20382 253.096 0.682753Z" fill="#D9F2FF"/>
<path d="M408.539 20C286.126 20 243.821 33.5344 134.91 33.5344C78.802 33.5344 42.2826 31.0612 0 28.0866V85H1792.88C1796.48 54.9728 1793.42 33.5344 1752.38 33.5344C1701.07 33.5344 1598.46 20 1498.55 20C1398.64 20 1334.74 33.5344 1242.93 33.5344C1151.12 33.5344 1106.11 20 958.496 20C810.881 20 746.974 33.5344 650.664 33.5344C554.354 33.5344 530.951 20 408.539 20Z" fill="#164352"/>
<path d="M381.314 40.0684C273.067 40.0684 208.243 13.222 62.4236 9.24738C40.7262 8.65597 19.8726 9.1578 0 10.4026V125H1920V28.4353C1897.15 23.1801 1868.21 18.1287 1820.56 18.1287C1721.26 18.1287 1657.15 53.0617 1565.91 53.0617C1474.66 53.0617 1346.59 27.3078 1199.87 27.3078C1053.16 27.3078 989.641 40.0684 893.919 40.0684C798.197 40.0684 740.701 18.1287 619.035 18.1287C497.37 18.1287 489.56 40.0684 381.314 40.0684Z" fill="#2D7E97"/>
</svg>
